<svg width="20" height="20" viewBox="0 0 20 20" fill="none" xmlns="http://www.w3.org/2000/svg">
<path d="M3.33398 8.45283C3.33398 4.70533 6.31898 1.66699 10.0007 1.66699C13.6823 1.66699 16.6673 4.70533 16.6673 8.45283C16.6673 12.1712 14.5398 16.5112 11.2198 18.062C10.8382 18.2407 10.422 18.3333 10.0007 18.3333C9.57929 18.3333 9.16308 18.2407 8.78148 18.062C5.46148 16.5103 3.33398 12.172 3.33398 8.45366V8.45283Z" stroke="#707070" stroke-width="1.5"/>
<path d="M10 6.43055L9.56 6.87472C9.67705 6.99074 9.83519 7.05584 10 7.05584C10.1648 7.05584 10.323 6.99074 10.44 6.87472L10 6.43055ZM9.58083 9.10388C9.2325 8.83972 8.8475 8.50888 8.55583 8.15972C8.25083 7.79305 8.125 7.49972 8.125 7.29805H6.875C6.875 7.94722 7.235 8.52722 7.59667 8.96055C7.97417 9.41222 8.44083 9.80805 8.82417 10.0997L9.58083 9.10388ZM8.125 7.29805C8.125 6.77972 8.35583 6.55972 8.54167 6.49222C8.73917 6.41972 9.11917 6.43722 9.56 6.87472L10.44 5.98722C9.75583 5.30805 8.88583 5.03722 8.115 5.31722C7.33167 5.60138 6.875 6.37305 6.875 7.29805H8.125ZM11.175 10.0997C11.5592 9.80805 12.0258 9.41222 12.4025 8.96055C12.765 8.52722 13.125 7.94722 13.125 7.29805H11.875C11.875 7.49972 11.75 7.79305 11.4433 8.15972C11.1517 8.50888 10.7683 8.83972 10.4192 9.10388L11.175 10.0997ZM13.125 7.29805C13.125 6.37305 12.6683 5.60138 11.885 5.31722C11.1142 5.03722 10.2442 5.30805 9.56 5.98722L10.44 6.87472C10.8808 6.43722 11.2608 6.41972 11.4583 6.49138C11.6442 6.55972 11.875 6.77972 11.875 7.29805H13.125ZM8.825 10.0997C9.12833 10.3306 9.4775 10.6256 10 10.6256V9.37555C9.98333 9.37555 9.975 9.37722 9.93 9.35222C9.80812 9.27704 9.69204 9.19409 9.58083 9.10388L8.825 10.0997ZM10.4192 9.10388C10.3082 9.19406 10.1916 9.27701 10.07 9.35222C10.0258 9.37722 10.0158 9.37555 10 9.37555V10.6256C10.5225 10.6256 10.8717 10.3306 11.175 10.0997L10.4192 9.10388Z" fill="#707070"/>
</svg>
