<svg width="20" height="20" viewBox="0 0 20 20" fill="none" xmlns="http://www.w3.org/2000/svg">
<path fill-rule="evenodd" clip-rule="evenodd" d="M8.71601 1.04199H11.2827C12.6185 1.04199 13.666 1.04199 14.5027 1.12116C15.3552 1.20283 16.0535 1.37116 16.6693 1.74783C17.3144 2.14302 17.8567 2.68531 18.2518 3.33033C18.6285 3.94533 18.7968 4.64449 18.8785 5.49699C18.9577 6.33366 18.9577 7.38116 18.9577 8.71783V9.60699C18.9577 10.5578 18.9577 11.3037 18.916 11.9062C18.8743 12.5187 18.7885 13.0287 18.5927 13.5003C18.3519 14.0817 17.9989 14.61 17.5539 15.0549C17.109 15.4999 16.5807 15.8529 15.9993 16.0937C15.3285 16.372 14.5652 16.4337 13.5185 16.452C13.2601 16.4511 13.0019 16.4611 12.7443 16.482C12.5793 16.5003 12.5152 16.527 12.4777 16.5487C12.4385 16.572 12.3843 16.6137 12.291 16.742C12.1902 16.8803 12.076 17.072 11.8943 17.3787L11.4427 18.142C10.7985 19.2312 9.20101 19.2312 8.55601 18.142L8.10435 17.3787C7.98087 17.1611 7.84854 16.9487 7.70768 16.742C7.61435 16.6137 7.56018 16.572 7.52101 16.5487C7.48351 16.527 7.41935 16.5003 7.25435 16.482C7.07768 16.4628 6.84601 16.457 6.47935 16.4512C5.43352 16.4337 4.67018 16.372 3.99935 16.0937C3.41797 15.8529 2.88971 15.4999 2.44475 15.0549C1.99978 14.61 1.64682 14.0817 1.40602 13.5003C1.21018 13.0287 1.12435 12.5187 1.08185 11.9062C1.04102 11.3037 1.04102 10.5578 1.04102 9.60616V8.71783C1.04102 7.38116 1.04102 6.33449 1.12018 5.49699C1.20185 4.64449 1.37018 3.94533 1.74685 3.33033C2.14204 2.68531 2.68433 2.14302 3.32935 1.74783C3.94435 1.37116 4.64352 1.20283 5.49602 1.12116C6.33268 1.04199 7.38018 1.04199 8.71685 1.04199M5.61518 2.36616C4.85351 2.43866 4.36935 2.57699 3.98268 2.81366C3.50577 3.10581 3.10483 3.50675 2.81268 3.98366C2.57602 4.37033 2.43768 4.85449 2.36518 5.61699C2.29185 6.38699 2.29102 7.37533 2.29102 8.75116V9.58449C2.29102 10.5637 2.29102 11.267 2.32935 11.822C2.36685 12.3712 2.43852 12.7295 2.56102 13.0228C2.92047 13.8906 3.60991 14.58 4.47768 14.9395C4.90685 15.1178 5.45518 15.1845 6.50185 15.2028H6.52768C6.85935 15.2087 7.15018 15.2137 7.39185 15.2403C7.65101 15.2695 7.90518 15.327 8.14935 15.4687C8.39101 15.6103 8.56601 15.7978 8.71768 16.0062C8.85851 16.1995 9.00268 16.4437 9.16601 16.7195L9.63185 17.5062C9.6708 17.5685 9.72496 17.6199 9.78925 17.6555C9.85354 17.6912 9.92584 17.7099 9.99935 17.7099C10.0729 17.7099 10.1452 17.6912 10.2094 17.6555C10.2737 17.6199 10.3279 17.5685 10.3668 17.5062L10.8327 16.7195C10.996 16.4437 11.141 16.1995 11.281 16.0062C11.4327 15.7978 11.6077 15.6095 11.8493 15.4687C12.0935 15.327 12.3477 15.2687 12.6068 15.2403C12.8485 15.2137 13.1393 15.2087 13.471 15.2028H13.4977C14.5435 15.1845 15.0918 15.1178 15.521 14.9395C16.3888 14.58 17.0782 13.8906 17.4377 13.0228C17.5602 12.7295 17.6318 12.3712 17.6693 11.822C17.7077 11.267 17.7077 10.5637 17.7077 9.58449V8.75116C17.7077 7.37533 17.7077 6.38699 17.6335 5.61616C17.561 4.85449 17.4227 4.37033 17.186 3.98366C16.894 3.50715 16.4934 3.10651 16.0168 2.81449C15.6302 2.57783 15.146 2.43949 14.3835 2.36699C13.6135 2.29366 12.6252 2.29283 11.2493 2.29283H8.74935C7.37351 2.29283 6.38518 2.29283 5.61435 2.36699" fill="#707070"/>
<path d="M7.50065 9.16634C7.50065 9.38735 7.41285 9.59932 7.25657 9.7556C7.10029 9.91188 6.88833 9.99967 6.66732 9.99967C6.4463 9.99967 6.23434 9.91188 6.07806 9.7556C5.92178 9.59932 5.83398 9.38735 5.83398 9.16634C5.83398 8.94533 5.92178 8.73337 6.07806 8.57709C6.23434 8.42081 6.4463 8.33301 6.66732 8.33301C6.88833 8.33301 7.10029 8.42081 7.25657 8.57709C7.41285 8.73337 7.50065 8.94533 7.50065 9.16634ZM10.834 9.16634C10.834 9.38735 10.7462 9.59932 10.5899 9.7556C10.4336 9.91188 10.2217 9.99967 10.0007 9.99967C9.77964 9.99967 9.56768 9.91188 9.41139 9.7556C9.25511 9.59932 9.16732 9.38735 9.16732 9.16634C9.16732 8.94533 9.25511 8.73337 9.41139 8.57709C9.56768 8.42081 9.77964 8.33301 10.0007 8.33301C10.2217 8.33301 10.4336 8.42081 10.5899 8.57709C10.7462 8.73337 10.834 8.94533 10.834 9.16634ZM14.1673 9.16634C14.1673 9.38735 14.0795 9.59932 13.9232 9.7556C13.767 9.91188 13.555 9.99967 13.334 9.99967C13.113 9.99967 12.901 9.91188 12.7447 9.7556C12.5884 9.59932 12.5006 9.38735 12.5006 9.16634C12.5006 8.94533 12.5884 8.73337 12.7447 8.57709C12.901 8.42081 13.113 8.33301 13.334 8.33301C13.555 8.33301 13.767 8.42081 13.9232 8.57709C14.0795 8.73337 14.1673 8.94533 14.1673 9.16634Z" fill="#707070"/>
</svg>
