<svg width="14" height="18" viewBox="0 0 14 18" fill="none" xmlns="http://www.w3.org/2000/svg">
<path fill-rule="evenodd" clip-rule="evenodd" d="M10.2031 7.7041C10.2031 8.49975 9.88705 9.26281 9.32444 9.82542C8.76183 10.388 7.99877 10.7041 7.20312 10.7041C6.40747 10.7041 5.64441 10.388 5.0818 9.82542C4.5192 9.26281 4.20313 8.49975 4.20312 7.7041C4.20312 6.90845 4.5192 6.14539 5.0818 5.58278C5.64441 5.02017 6.40747 4.7041 7.20312 4.7041C7.99877 4.7041 8.76183 5.02017 9.32444 5.58278C9.88705 6.14539 10.2031 6.90845 10.2031 7.7041ZM8.70312 7.7041C8.70312 8.10193 8.54509 8.48346 8.26378 8.76476C7.98248 9.04607 7.60095 9.2041 7.20312 9.2041C6.8053 9.2041 6.42377 9.04607 6.14246 8.76476C5.86116 8.48346 5.70312 8.10193 5.70312 7.7041C5.70312 7.30628 5.86116 6.92475 6.14246 6.64344C6.42377 6.36214 6.8053 6.2041 7.20312 6.2041C7.60095 6.2041 7.98248 6.36214 8.26378 6.64344C8.54509 6.92475 8.70312 7.30628 8.70312 7.7041Z" fill="#545454"/>
<path fill-rule="evenodd" clip-rule="evenodd" d="M2.3455 12.3886C1.37863 11.468 0.706457 10.2814 0.41398 8.97879C0.121502 7.67619 0.221859 6.31612 0.702359 5.07056C1.18286 3.825 2.02192 2.74989 3.11344 1.9812C4.20496 1.21251 5.49991 0.784755 6.83454 0.752029C8.16917 0.719303 9.48353 1.08308 10.6114 1.79735C11.7393 2.51162 12.63 3.54431 13.171 4.76482C13.712 5.98533 13.8789 7.33885 13.6506 8.65422C13.4223 9.96959 12.8091 11.1877 11.8885 12.1546L7.23401 17.0431L2.3455 12.3886ZM10.8025 11.1203L7.18226 14.9228L3.37976 11.3026C2.62778 10.5866 2.10501 9.66366 1.87754 8.65056C1.65007 7.63745 1.72813 6.57964 2.10184 5.61089C2.47555 4.64215 3.12813 3.80597 3.97706 3.2081C4.82598 2.61022 5.83313 2.27751 6.87115 2.25202C7.90917 2.22654 8.93143 2.50942 9.80868 3.06491C10.6859 3.6204 11.3788 4.42355 11.7996 5.37278C12.2204 6.32202 12.3502 7.37473 12.1728 8.39778C11.9953 9.42083 11.5184 10.3683 10.8025 11.1203Z" fill="#545454"/>
</svg>
