<svg width="20" height="20" viewBox="0 0 20 20" fill="none" xmlns="http://www.w3.org/2000/svg">
<path d="M10.0007 2.70801C10.1664 2.70801 10.3254 2.77386 10.4426 2.89107C10.5598 3.00828 10.6257 3.16725 10.6257 3.33301C10.6257 3.49877 10.5598 3.65774 10.4426 3.77495C10.3254 3.89216 10.1664 3.95801 10.0007 3.95801C8.3983 3.95801 6.86158 4.59454 5.72855 5.72757C4.59552 6.8606 3.95898 8.39732 3.95898 9.99967C3.95898 11.602 4.59552 13.1387 5.72855 14.2718C6.86158 15.4048 8.3983 16.0413 10.0007 16.0413C10.1664 16.0413 10.3254 16.1072 10.4426 16.2244C10.5598 16.3416 10.6257 16.5006 10.6257 16.6663C10.6257 16.8321 10.5598 16.9911 10.4426 17.1083C10.3254 17.2255 10.1664 17.2913 10.0007 17.2913C8.06678 17.2913 6.21212 16.5231 4.84466 15.1557C3.47721 13.7882 2.70898 11.9335 2.70898 9.99967C2.70898 8.0658 3.47721 6.21114 4.84466 4.84369C6.21212 3.47623 8.06678 2.70801 10.0007 2.70801Z" fill="#F00707"/>
<path d="M13.7257 7.9417C13.6153 7.82322 13.5551 7.66652 13.558 7.5046C13.5609 7.34268 13.6265 7.18819 13.741 7.07368C13.8555 6.95917 14.01 6.89358 14.1719 6.89072C14.3338 6.88787 14.4905 6.94797 14.609 7.05837L17.109 9.55837C17.226 9.67556 17.2918 9.83441 17.2918 10C17.2918 10.1657 17.226 10.3245 17.109 10.4417L14.609 12.9417C14.5518 13.0031 14.4828 13.0524 14.4061 13.0865C14.3294 13.1207 14.2467 13.139 14.1628 13.1405C14.0788 13.142 13.9955 13.1266 13.9177 13.0951C13.8398 13.0637 13.7691 13.0169 13.7098 12.9576C13.6504 12.8982 13.6037 12.8275 13.5722 12.7497C13.5408 12.6719 13.5253 12.5885 13.5268 12.5046C13.5283 12.4207 13.5467 12.3379 13.5808 12.2613C13.615 12.1846 13.6642 12.1156 13.7257 12.0584L15.159 10.625H8.33398C8.16822 10.625 8.00925 10.5592 7.89204 10.442C7.77483 10.3248 7.70898 10.1658 7.70898 10C7.70898 9.83428 7.77483 9.6753 7.89204 9.55809C8.00925 9.44088 8.16822 9.37504 8.33398 9.37504H15.159L13.7257 7.9417Z" fill="#F00707"/>
</svg>
