<svg width="18" height="20" viewBox="0 0 18 20" fill="none" xmlns="http://www.w3.org/2000/svg">
<path fill-rule="evenodd" clip-rule="evenodd" d="M8.94869 0.145508H9.05135C10.7362 0.145508 12.0709 0.145508 13.1149 0.285758C14.1893 0.430591 15.0592 0.734924 15.7458 1.42059C16.4314 2.10717 16.7358 2.97709 16.8806 4.05142C17.0209 5.09642 17.0209 6.43017 17.0209 8.11501V11.8843C17.0209 13.5692 17.0209 14.9038 16.8806 15.9479C16.7358 17.0223 16.4314 17.8922 15.7458 18.5788C15.0592 19.2644 14.1893 19.5688 13.1149 19.7136C12.0699 19.8538 10.7362 19.8538 9.05135 19.8538H8.94869C7.26385 19.8538 5.92919 19.8538 4.8851 19.7136C3.81077 19.5688 2.94085 19.2644 2.25427 18.5788C1.5686 17.8922 1.26427 17.0223 1.11944 15.9479C0.979187 14.9029 0.979187 13.5692 0.979187 11.8843V8.11501C0.979187 6.43017 0.979187 5.09551 1.11944 4.05142C1.26427 2.97709 1.5686 2.10717 2.25427 1.42059C2.94085 0.734924 3.81077 0.430591 4.8851 0.285758C5.9301 0.145508 7.26385 0.145508 8.94869 0.145508ZM5.06752 1.64884C4.14535 1.77259 3.61369 2.00542 3.22502 2.39317C2.83819 2.78092 2.60535 3.31259 2.4816 4.23476C2.3551 5.17709 2.35327 6.41826 2.35327 8.16634V11.833C2.35327 13.5811 2.3551 14.8232 2.4816 15.7655C2.60535 16.6868 2.83819 17.2184 3.22594 17.6062C3.61369 17.9939 4.14535 18.2268 5.06752 18.3505C6.00985 18.477 7.25102 18.4788 8.9991 18.4788C10.7472 18.4788 11.9893 18.477 12.9316 18.3505C13.8529 18.2268 14.3845 17.9939 14.7723 17.6062C15.16 17.2184 15.3929 16.6868 15.5166 15.7646C15.6431 14.8232 15.6449 13.5811 15.6449 11.833V8.16634C15.6449 6.41826 15.6431 5.17709 15.5166 4.23384C15.3929 3.31259 15.16 2.78092 14.7723 2.39317C14.3845 2.00542 13.8529 1.77259 12.9307 1.64884C11.9884 1.52234 10.7472 1.52051 8.9991 1.52051C7.25102 1.52051 6.01077 1.52234 5.06752 1.64884ZM5.56252 3.58301C5.56252 3.40067 5.63495 3.2258 5.76389 3.09687C5.89282 2.96794 6.06768 2.89551 6.25002 2.89551H11.75C11.9324 2.89551 12.1072 2.96794 12.2362 3.09687C12.3651 3.2258 12.4375 3.40067 12.4375 3.58301C12.4375 3.76534 12.3651 3.94021 12.2362 4.06914C12.1072 4.19807 11.9324 4.27051 11.75 4.27051H6.25002C6.06768 4.27051 5.89282 4.19807 5.76389 4.06914C5.63495 3.94021 5.56252 3.76534 5.56252 3.58301ZM9.00002 13.4372C8.69613 13.4372 8.40468 13.5579 8.18979 13.7728C7.97491 13.9877 7.85419 14.2791 7.85419 14.583C7.85419 14.8869 7.97491 15.1783 8.18979 15.3932C8.40468 15.6081 8.69613 15.7288 9.00002 15.7288C9.30392 15.7288 9.59536 15.6081 9.81025 15.3932C10.0251 15.1783 10.1459 14.8869 10.1459 14.583C10.1459 14.2791 10.0251 13.9877 9.81025 13.7728C9.59536 13.5579 9.30392 13.4372 9.00002 13.4372ZM6.47919 14.583C6.47919 13.9144 6.74477 13.2733 7.21752 12.8005C7.69027 12.3278 8.33145 12.0622 9.00002 12.0622C9.66859 12.0622 10.3098 12.3278 10.7825 12.8005C11.2553 13.2733 11.5209 13.9144 11.5209 14.583C11.5209 15.2516 11.2553 15.8928 10.7825 16.3655C10.3098 16.8383 9.66859 17.1038 9.00002 17.1038C8.33145 17.1038 7.69027 16.8383 7.21752 16.3655C6.74477 15.8928 6.47919 15.2516 6.47919 14.583Z" fill="#707071"/>
</svg>
